PathFileType	4	(X/Y/Z)	C:\Users\86182\Documents\cortex\Trimmed_M1_H8.trc
DataRate	CameraRate	NumFrames	NumMarkers	Units	OrigDataRate	OrigDataStartFrame	OrigNumFrames
100.00	100.00	       98	2	mm	100.00	541	       901
Frame#	Time	gripper			box			
		X1	Y1	Z1	X2	Y2	Z2	

541	5.400	203.24155	206.87294	293.56436	229.45517	202.96632	145.22827	
542	5.410	203.24155	206.87294	293.56436	229.45509	202.96640	145.22737	
543	5.420	203.24155	206.87294	293.56436	229.45354	202.96573	145.22736	
544	5.430	203.24155	206.87294	293.56436	229.45076	202.96451	145.22784	
545	5.440	203.24155	206.87294	293.56436	229.44737	202.96298	145.22867	
546	5.450	203.24155	206.87294	293.56436	229.44408	202.96147	145.22977	
547	5.460	203.24155	206.87294	293.56433	229.44150	202.96022	145.23117	
548	5.470	203.24155	206.87294	293.56436	229.43999	202.95938	145.23291	
549	5.480	203.24155	206.87294	293.56433	229.43964	202.95900	145.23502	
550	5.490	203.24155	206.87294	293.56436	229.44022	202.95897	145.23737	
551	5.500	203.24155	206.87294	293.56433	229.44133	202.95918	145.23967	
552	5.510	203.24155	206.87294	293.56436	229.44257	202.95949	145.24158	
553	5.520	203.24155	206.87294	293.56433	229.44351	202.95976	145.24277	
554	5.530	203.24155	206.87294	293.56436	229.44389	202.95990	145.24298	
555	5.540	203.24155	206.87294	293.56433	229.44357	202.95987	145.24203	
556	5.550	203.24155	206.87294	293.56433	229.44258	202.95969	145.23999	
557	5.560	203.24155	206.87294	293.56433	229.44122	202.95943	145.23717	
558	5.570	203.24155	206.87294	293.56433	229.43990	202.95920	145.23407	
559	5.580	203.24155	206.87294	293.56433	229.43900	202.95914	145.23126	
560	5.590	203.24155	206.87294	293.56433	229.43884	202.95929	145.22934	
561	5.600	203.24155	206.87294	293.56436	229.43948	202.95963	145.22870	
562	5.610	203.24155	206.87294	293.56436	229.44060	202.96002	145.22946	
563	5.620	203.24155	206.87294	293.56436	229.44182	202.96033	145.23128	
564	5.630	203.24155	206.87294	293.56436	229.44284	202.96054	145.23331	
565	5.640	203.24155	206.87294	293.56436	229.44362	202.96071	145.23471	
566	5.650	203.24153	206.87294	293.56436	229.44429	202.96095	145.23514	
567	5.660	203.24153	206.87294	293.56436	229.44519	202.96136	145.23485	
568	5.670	203.24153	206.87294	293.56436	229.44653	202.96199	145.23433	
569	5.680	203.24153	206.87294	293.56436	229.44815	202.96271	145.23410	
570	5.690	203.24153	206.87294	293.56436	229.44958	202.96327	145.23453	
571	5.700	203.24155	206.87294	293.56436	229.45039	202.96347	145.23572	
572	5.710	203.24155	206.87294	293.56436	229.45061	202.96336	145.23753	
573	5.720	203.24155	206.87294	293.56436	229.45049	202.96306	145.23981	
574	5.730	203.24155	206.87294	293.56436	229.45027	202.96268	145.24237	
575	5.740	203.24155	206.87294	293.56436	229.45006	202.96230	145.24487	
576	5.750	203.24155	206.87294	293.56436	229.44987	202.96198	145.24704	
577	5.760	203.24155	206.87294	293.56436	229.44960	202.96170	145.24846	
578	5.770	203.24155	206.87294	293.56436	229.44901	202.96141	145.24881	
579	5.780	203.24155	206.87294	293.56436	229.44797	202.96106	145.24802	
580	5.790	203.24155	206.87294	293.56436	229.44670	202.96071	145.24637	
581	5.800	203.24155	206.87294	293.56436	229.44559	202.96045	145.24438	
582	5.810	203.24155	206.87294	293.56436	229.44492	202.96039	145.24246	
583	5.820	203.24155	206.87294	293.56436	229.44476	202.96053	145.24066	
584	5.830	203.24155	206.87294	293.56436	229.44511	202.96086	145.23897	
585	5.840	203.24155	206.87294	293.56436	229.44589	202.96135	145.23749	
586	5.850	203.24155	206.87294	293.56436	229.44691	202.96193	145.23630	
587	5.860	203.24155	206.87294	293.56436	229.44794	202.96246	145.23531	
588	5.870	203.24155	206.87294	293.56436	229.44870	202.96291	145.23433	
589	5.880	203.24155	206.87294	293.56436	229.44905	202.96318	145.23318	
590	5.890	203.24155	206.87294	293.56436	229.44881	202.96321	145.23204	
591	5.900	203.24155	206.87294	293.56436	229.44789	202.96291	145.23129	
592	5.910	203.24155	206.87294	293.56436	229.44633	202.96225	145.23126	
593	5.920	203.24155	206.87294	293.56436	229.44456	202.96144	145.23187	
594	5.930	203.24155	206.87294	293.56436	229.44310	202.96069	145.23288	
595	5.940	203.24155	206.87294	293.56436	229.44225	202.96021	145.23412	
596	5.950	203.24155	206.87294	293.56436	229.44205	202.95998	145.23541	
597	5.960	203.24155	206.87294	293.56436	229.44229	202.95995	145.23660	
598	5.970	203.24155	206.87294	293.56436	229.44264	202.96001	145.23735	
599	5.980	203.24155	206.87294	293.56436	229.44279	202.96008	145.23734	
600	5.990	203.24155	206.87294	293.56436	229.44266	202.96011	145.23643	
601	6.000	203.24155	206.87294	293.56436	229.44223	202.96011	145.23486	
602	6.010	203.24155	206.87294	293.56436	229.44151	202.96002	145.23300	
603	6.020	203.24155	206.87294	293.56436	229.44043	202.95976	145.23123	
604	6.030	203.24155	206.87294	293.56436	229.43912	202.95934	145.23000	
605	6.040	203.24155	206.87294	293.56436	229.43793	202.95889	145.22957	
606	6.050	203.24155	206.87294	293.56436	229.43732	202.95857	145.23007	
607	6.060	203.24155	206.87294	293.56433	229.43750	202.95848	145.23146	
608	6.070	203.24155	206.87294	293.56433	229.43851	202.95868	145.23355	
609	6.080	203.24155	206.87294	293.56433	229.44017	202.95911	145.23602	
610	6.090	203.24155	206.87294	293.56433	229.44212	202.95966	145.23840	
611	6.100	203.24155	206.87294	293.56433	229.44398	202.96025	145.24017	
612	6.110	203.24155	206.87294	293.56436	229.44545	202.96077	145.24109	
613	6.120	203.24155	206.87294	293.56436	229.44640	202.96117	145.24112	
614	6.130	203.24155	206.87294	293.56436	229.44678	202.96141	145.24030	
615	6.140	203.24155	206.87294	293.56436	229.44661	202.96152	145.23883	
616	6.150	203.24155	206.87294	293.56436	229.44601	202.96146	145.23703	
617	6.160	203.24155	206.87294	293.56436	229.44508	202.96126	145.23541	
618	6.170	203.24155	206.87294	293.56436	229.44383	202.96086	145.23422	
619	6.180	203.24155	206.87294	293.56436	229.44244	202.96034	145.23357	
620	6.190	203.24155	206.87294	293.56436	229.44113	202.95981	145.23338	
621	6.200	203.24155	206.87294	293.56439	229.44006	202.95934	145.23361	
622	6.210	203.24155	206.87294	293.56436	229.43933	202.95897	145.23401	
623	6.220	203.24155	206.87294	293.56436	229.43892	202.95877	145.23428	
624	6.230	203.24155	206.87294	293.56436	229.43887	202.95876	145.23418	
625	6.240	203.24155	206.87294	293.56436	229.43932	202.95900	145.23373	
626	6.250	203.24155	206.87294	293.56436	229.44040	202.95953	145.23300	
627	6.260	203.24155	206.87294	293.56433	229.44206	202.96036	145.23195	
628	6.270	203.24155	206.87294	293.56433	229.44411	202.96140	145.23059	
629	6.280	203.24155	206.87294	293.56433	229.44627	202.96251	145.22900	
630	6.290	203.24155	206.87294	293.56436	229.44846	202.96365	145.22733	
631	6.300	203.24155	206.87294	293.56436	229.45085	202.96490	145.22556	
632	6.310	203.24155	206.87294	293.56436	229.45351	202.96626	145.22382	
633	6.320	203.24155	206.87294	293.56436	229.45599	202.96753	145.22231	
634	6.330	203.24155	206.87294	293.56436	229.45758	202.96832	145.22134	
635	6.340	203.24155	206.87294	293.56436	229.45770	202.96837	145.22116	
636	6.350	203.24155	206.87294	293.56436	229.45596	202.96745	145.22183	
637	6.360	203.24155	206.87294	293.56436	229.45262	202.96564	145.22319	
638	6.370	203.24155	206.87294	293.56436	229.44865	202.96336	145.22482	
